<svg width="7" height="6" viewBox="0 0 7 6" fill="none" xmlns="http://www.w3.org/2000/svg">
        <g clip-path="url(#clip0_10_272)">
            <mask id="mask0_10_272" style="mask-type:luminance" maskUnits="userSpaceOnUse" x="0" y="0" width="7" height="6">
                <path d="M6.09923 0.237732H0.849976V5.48699H6.09923V0.237732Z" fill="white"/>
            </mask>
        <g mask="url(#mask0_10_272)">
            <path fill-rule="evenodd" clip-rule="evenodd" d="M2.4919 0.654585C2.75841 0.388088 3.11973 0.238157 3.49661 0.237671C3.87353 0.238122 4.23489 0.388038 4.50142 0.654539C4.76795 0.921037 4.91789 1.28237 4.91838 1.65927V2.43609C5.02261 2.4575 5.11916 2.50901 5.19551 2.58535C5.29806 2.68789 5.35574 2.82685 5.3559 2.97186V4.9403C5.35564 5.08525 5.2979 5.22422 5.19538 5.32668C5.09285 5.42914 4.95388 5.48668 4.80893 5.48685H2.1843C2.03936 5.48675 1.90037 5.42911 1.79783 5.32668C1.69529 5.22422 1.63758 5.08535 1.63733 4.94043V2.97199C1.63747 2.82696 1.69513 2.68792 1.79767 2.58535C1.87405 2.50895 1.9707 2.45744 2.07498 2.43606V1.65927C2.07547 1.28239 2.2254 0.92108 2.4919 0.654585ZM2.73114 2.42491H4.26222V1.65927C4.26222 1.45624 4.18158 1.26153 4.038 1.11796C3.89444 0.974403 3.69972 0.893748 3.49668 0.893748C3.29365 0.893748 3.09893 0.974403 2.95536 1.11796C2.8118 1.26153 2.73114 1.45624 2.73114 1.65927V2.42491ZM3.11141 3.23855C3.21374 3.13662 3.35218 3.07928 3.49662 3.07887V3.0799H3.49963C3.57144 3.0799 3.64253 3.0942 3.70877 3.12193C3.775 3.14966 3.83507 3.19021 3.88546 3.24137C3.93617 3.29224 3.97631 3.35265 4.00354 3.41912C4.03077 3.48558 4.04456 3.55683 4.04412 3.62865C4.04363 3.73005 4.015 3.82936 3.96141 3.91545C3.90782 4.00154 3.83136 4.07096 3.74058 4.11614L3.82548 4.70668C3.8264 4.71163 3.8264 4.71711 3.8264 4.72246C3.82605 4.75136 3.81434 4.77912 3.79378 4.79946C3.77322 4.8198 3.74549 4.83122 3.71657 4.83125H3.27851C3.27338 4.83115 3.26825 4.83082 3.26315 4.8302C3.24889 4.82823 3.23518 4.82344 3.22278 4.81613C3.21039 4.80878 3.19956 4.79907 3.19093 4.78755C3.18231 4.776 3.17604 4.76291 3.17251 4.74897C3.16899 4.73499 3.16827 4.72039 3.17038 4.70615L3.25463 4.11561C3.16273 4.07044 3.08544 4.00026 3.03159 3.91316C2.97774 3.82605 2.94953 3.72553 2.95018 3.62313C2.95115 3.4787 3.00908 3.34048 3.11141 3.23855Z" fill="black"/>
        </g>
    </g>
    <defs>
        <clipPath id="clip0_10_272">
            <rect width="5.24925" height="5.24925" fill="white" transform="translate(0.849976 0.237732)"/>
        </clipPath>
    </defs>
</svg>
