<?xml version="1.0" encoding="UTF-8" standalone="no"?>
<!-- Created with Inkscape (http://www.inkscape.org/) -->

<svg
   width="264"
   height="264"
   viewBox="0 0 69.849998 69.85"
   version="1.1"
   id="svg1"
   xml:space="preserve"
   inkscape:version="1.4 (86a8ad7, 2024-10-11)"
   sodipodi:docname="dessin.svg"
   xmlns:inkscape="http://www.inkscape.org/namespaces/inkscape"
   xmlns:sodipodi="http://sodipodi.sourceforge.net/DTD/sodipodi-0.dtd"
   xmlns="http://www.w3.org/2000/svg"
   xmlns:svg="http://www.w3.org/2000/svg"><sodipodi:namedview
     id="namedview1"
     pagecolor="#505050"
     bordercolor="#eeeeee"
     borderopacity="1"
     inkscape:showpageshadow="0"
     inkscape:pageopacity="0"
     inkscape:pagecheckerboard="0"
     inkscape:deskcolor="#505050"
     inkscape:document-units="mm"
     inkscape:zoom="2.0535659"
     inkscape:cx="168.73089"
     inkscape:cy="178.47005"
     inkscape:window-width="1920"
     inkscape:window-height="1017"
     inkscape:window-x="-8"
     inkscape:window-y="-8"
     inkscape:window-maximized="1"
     inkscape:current-layer="svg1" /><defs
     id="defs1" /><rect
     style="fill:#ffffff;fill-opacity:1;stroke-width:3.24803;stroke-linecap:round;stroke-linejoin:round;paint-order:markers fill stroke"
     id="rect11"
     width="69.849998"
     height="69.849998"
     x="-1.4210855e-14"
     y="0"
     rx="19.957144"
     ry="19.957144" /><g
     inkscape:label="Calque 1"
     inkscape:groupmode="layer"
     id="layer1"><g
       id="g11"
       transform="matrix(0.99785714,0,0,0.99785714,-80.628494,-83.616428)"><path
         style="fill:#2a7898;fill-opacity:1"
         d="m 104.83836,119.33414 c -0.25848,-0.41824 -2.71306,-1.11461 -4.57911,-1.29911 l -1.783392,-0.17633 -0.132291,-3.30729 -0.132292,-3.30729 -1.322917,-0.0665 c -2.031483,-0.10213 -2.987463,-0.31292 -3.431078,-0.75653 -0.527445,-0.52745 -0.533386,-2.71292 -0.0094,-3.46101 0.217784,-0.31093 1.946099,-1.77756 3.8407,-3.25919 1.894601,-1.48162 3.56188,-2.91276 3.70507,-3.18031 0.14319,-0.26755 0.26034,-1.811803 0.26034,-3.431659 0,-3.820695 0.0835,-3.96875 2.23937,-3.96875 2.07435,0 2.52313,0.356316 2.52313,2.003273 0,0.845571 0.10647,1.171727 0.3825,1.171727 0.21037,0 2.08561,-1.329847 4.16719,-2.955215 4.03503,-3.150695 4.77687,-3.57417 5.78855,-3.304363 0.88962,0.237258 20.8761,15.847887 21.6102,16.878857 0.74273,1.04309 0.78397,2.58286 0.0921,3.43733 -0.43814,0.54108 -0.78045,0.63408 -2.64584,0.71879 l -2.14258,0.0973 -0.004,2.81625 c -0.005,4.01017 0.0497,3.90409 -2.11226,4.08534 -0.99479,0.0834 -2.57213,0.45705 -3.5052,0.83034 -0.93307,0.37329 -1.75918,0.6787 -1.8358,0.6787 -0.0766,0 -0.47827,-0.53624 -0.89255,-1.19165 -0.41429,-0.65542 -1.2006,-1.50168 -1.74737,-1.88059 -0.94026,-0.6516 -1.113,-0.67946 -3.18773,-0.51416 -3.34105,0.2662 -5.14239,0.23702 -7.66203,-0.12414 -2.29847,-0.32945 -2.30163,-0.32909 -3.53738,0.3951 -0.77895,0.4565 -1.53495,1.20439 -2.04206,2.02015 -0.75862,1.22037 -1.53477,1.64872 -1.90422,1.05094 z"
         id="path8" /><g
         id="g10"
         style="fill:#98832a;fill-opacity:1"><g
           id="g9"
           style="fill:#98832a;fill-opacity:1"><path
             style="fill:#98832a;fill-opacity:1"
             d="m 128.90294,133.64949 c -3.00042,-1.40994 -4.55218,-4.97682 -3.4363,-7.8987 1.96234,-5.13831 8.62762,-5.79901 11.45731,-1.13571 0.82252,1.35551 0.87198,1.57231 0.79276,3.47484 -0.0731,1.75596 -0.19222,2.18241 -0.88465,3.16762 -0.44008,0.62615 -1.31034,1.49705 -1.93391,1.93531 -0.9633,0.67703 -1.41966,0.80865 -3.03532,0.8754 -1.43393,0.0593 -2.16182,-0.0437 -2.95989,-0.41876 z"
             id="path7" /><path
             style="fill:#98832a;fill-opacity:1"
             d="m 121.74362,147.24943 c -0.46146,-0.33684 -0.52926,-0.82703 -0.66788,-4.82865 l -0.15428,-4.45374 -1.44689,-2.77813 c -1.58094,-3.03547 -2.15887,-5.16571 -2.62001,-9.65729 -0.24333,-2.37003 -0.19333,-3.89913 0.1699,-5.19595 0.1652,-0.5898 2.0678,-1.81551 2.81811,-1.81551 0.794,0 1.69716,0.647 2.14612,1.53742 0.2106,0.41766 0.43149,2.12777 0.53482,4.14058 0.19053,3.71092 0.64353,5.90092 1.6128,7.79686 2.0687,4.0465 7.36387,5.54416 11.56285,3.27037 1.53843,-0.83307 2.21873,-0.70017 3.77929,0.7383 1.85977,1.71428 2.31526,2.98509 2.45813,6.85814 0.11433,3.09957 0.0857,3.35299 -0.45575,4.03489 l -0.57775,0.72761 h -9.32294 c -7.62613,0 -9.41641,-0.0682 -9.83652,-0.3749 z"
             id="path5" /></g><g
           id="g8"
           style="fill:#98832a;fill-opacity:1"><path
             style="fill:#98832a;fill-opacity:1"
             d="m 97.661545,133.75528 c -0.447873,-0.19501 -1.258559,-0.74463 -1.801525,-1.22136 -3.307013,-2.9036 -2.761401,-7.96566 1.10345,-10.23755 1.042673,-0.61292 1.552277,-0.7335 3.09989,-0.7335 1.55464,0 2.05571,0.11969 3.12001,0.74529 3.01509,1.77229 4.11021,5.3609 2.56203,8.39558 -0.58258,1.14194 -2.12285,2.55484 -3.3392,3.06306 -1.09946,0.45939 -3.677573,0.45313 -4.744655,-0.0115 z"
             id="path6" /><path
             style="fill:#98832a;fill-opacity:1"
             d="m 90.141483,147.09516 c -0.46683,-0.46683 -0.529166,-0.88194 -0.529166,-3.52385 0,-4.44056 0.719543,-6.33753 3.082189,-8.12572 1.212359,-0.91758 1.867847,-0.96957 3.095116,-0.24546 1.353462,0.79856 2.476615,1.06624 4.487098,1.06941 2.88368,0.005 5.54445,-1.46996 6.93532,-3.84329 1.0519,-1.79494 1.71281,-4.875 1.72979,-8.06143 0.0188,-3.52211 0.32072,-4.45167 1.70486,-5.24858 1.75488,-1.01038 3.45834,-0.29453 4.12806,1.73474 0.37884,1.14788 -0.0685,6.17912 -0.85088,9.56912 -0.46667,2.02215 -0.83609,2.90314 -2.72085,6.4886 -0.48149,0.91597 -0.57412,1.65747 -0.68862,5.51218 -0.1193,4.01662 -0.18271,4.49064 -0.64588,4.82865 -0.4201,0.30657 -2.21426,0.3748 -9.85573,0.3748 -8.989362,0 -9.362123,-0.02 -9.871307,-0.52917 z"
             id="path4" /></g></g></g></g></svg>
